<mxfile host="app.diagrams.net" modified="2023-11-05T17:30:26.920Z" agent="Mozilla/5.0 (X11; Linux x86_64) AppleWebKit/537.36 (KHTML, like Gecko) Chrome/118.0.0.0 Safari/537.36" etag="0Ic5JoTFELQzl4R03dHo" version="22.0.8" type="device">
  <diagram name="Page-1" id="-ulH3O3-4FexaumD8vs6">
    <mxGraphModel dx="2006" dy="654" grid="1" gridSize="10" guides="1" tooltips="1" connect="1" arrows="1" fold="1" page="1" pageScale="1" pageWidth="827" pageHeight="1169" math="0" shadow="0">
      <root>
        <mxCell id="0" />
        <mxCell id="1" parent="0" />
        <mxCell id="weiLWwNsHWYrnJDk8qsG-4" value="&lt;b&gt;&lt;font face=&quot;Courier New&quot;&gt;MOV &lt;font color=&quot;#cc0000&quot;&gt;EBX&lt;/font&gt;, 0x11223344&lt;/font&gt;&lt;/b&gt;" style="text;html=1;align=center;verticalAlign=middle;resizable=0;points=[];autosize=1;strokeColor=none;fillColor=none;" parent="1" vertex="1">
          <mxGeometry x="-120" y="515" width="160" height="30" as="geometry" />
        </mxCell>
        <mxCell id="weiLWwNsHWYrnJDk8qsG-5" value="&lt;b&gt;&lt;font face=&quot;Courier New&quot;&gt;MOV &lt;font color=&quot;#cc0000&quot;&gt;EBX&lt;/font&gt;, &lt;font color=&quot;#009900&quot;&gt;EAX&lt;/font&gt;&lt;/font&gt;&lt;/b&gt;" style="text;html=1;align=center;verticalAlign=middle;resizable=0;points=[];autosize=1;strokeColor=none;fillColor=none;" parent="1" vertex="1">
          <mxGeometry x="-120" y="640" width="110" height="30" as="geometry" />
        </mxCell>
        <mxCell id="weiLWwNsHWYrnJDk8qsG-6" value="&lt;b&gt;&lt;font face=&quot;Courier New&quot;&gt;MOV &lt;font color=&quot;#cc0000&quot;&gt;EBX&lt;/font&gt;, [&lt;font color=&quot;#009900&quot;&gt;EAX&lt;/font&gt;&lt;/font&gt;&lt;/b&gt;&lt;b style=&quot;border-color: var(--border-color);&quot;&gt;&lt;font style=&quot;border-color: var(--border-color);&quot; face=&quot;Courier New&quot;&gt;]&lt;/font&gt;&lt;/b&gt;" style="text;html=1;align=center;verticalAlign=middle;resizable=0;points=[];autosize=1;strokeColor=none;fillColor=none;" parent="1" vertex="1">
          <mxGeometry x="-120" y="765" width="120" height="30" as="geometry" />
        </mxCell>
        <mxCell id="weiLWwNsHWYrnJDk8qsG-7" value="&lt;b&gt;&lt;font face=&quot;Courier New&quot;&gt;MOV [&lt;/font&gt;&lt;/b&gt;&lt;b style=&quot;border-color: var(--border-color);&quot;&gt;&lt;font style=&quot;border-color: var(--border-color);&quot; face=&quot;Courier New&quot;&gt;&lt;font style=&quot;border-color: var(--border-color);&quot; color=&quot;#009900&quot;&gt;EAX&lt;/font&gt;&lt;/font&gt;&lt;/b&gt;&lt;b&gt;&lt;font face=&quot;Courier New&quot;&gt;],&amp;nbsp;&lt;/font&gt;&lt;/b&gt;&lt;b style=&quot;border-color: var(--border-color);&quot;&gt;&lt;font style=&quot;border-color: var(--border-color);&quot; face=&quot;Courier New&quot;&gt;&lt;font style=&quot;border-color: var(--border-color);&quot; color=&quot;#cc0000&quot;&gt;EBX&lt;/font&gt;&lt;/font&gt;&lt;/b&gt;" style="text;html=1;align=center;verticalAlign=middle;resizable=0;points=[];autosize=1;strokeColor=none;fillColor=none;" parent="1" vertex="1">
          <mxGeometry x="-120" y="895" width="120" height="30" as="geometry" />
        </mxCell>
        <mxCell id="weiLWwNsHWYrnJDk8qsG-9" value="" style="rounded=0;whiteSpace=wrap;html=1;fillColor=#f5f5f5;fontColor=#333333;strokeColor=#666666;" parent="1" vertex="1">
          <mxGeometry x="320" y="550" width="90" height="20" as="geometry" />
        </mxCell>
        <mxCell id="weiLWwNsHWYrnJDk8qsG-10" value="&lt;b style=&quot;border-color: var(--border-color);&quot;&gt;&lt;font color=&quot;#808080&quot; style=&quot;border-color: var(--border-color);&quot; face=&quot;Courier New&quot;&gt;0xdeadbeef&lt;/font&gt;&lt;/b&gt;" style="rounded=0;whiteSpace=wrap;html=1;fillColor=#dae8fc;strokeColor=#6c8ebf;" parent="1" vertex="1">
          <mxGeometry x="320" y="530" width="90" height="20" as="geometry" />
        </mxCell>
        <mxCell id="weiLWwNsHWYrnJDk8qsG-11" value="" style="rounded=0;whiteSpace=wrap;html=1;fillColor=#f5f5f5;fontColor=#333333;strokeColor=#666666;" parent="1" vertex="1">
          <mxGeometry x="320" y="510" width="90" height="20" as="geometry" />
        </mxCell>
        <mxCell id="weiLWwNsHWYrnJDk8qsG-12" value="" style="rounded=0;whiteSpace=wrap;html=1;fillColor=#f5f5f5;fontColor=#333333;strokeColor=#666666;" parent="1" vertex="1">
          <mxGeometry x="320" y="490" width="90" height="20" as="geometry" />
        </mxCell>
        <mxCell id="weiLWwNsHWYrnJDk8qsG-13" value="&lt;b&gt;&lt;font color=&quot;#808080&quot; face=&quot;Courier New&quot;&gt;0x700000F0&lt;/font&gt;&lt;/b&gt;" style="text;html=1;strokeColor=none;fillColor=none;align=center;verticalAlign=middle;whiteSpace=wrap;rounded=0;" parent="1" vertex="1">
          <mxGeometry x="220" y="525" width="90" height="30" as="geometry" />
        </mxCell>
        <mxCell id="weiLWwNsHWYrnJDk8qsG-14" value="&lt;font color=&quot;#808080&quot;&gt;&lt;b&gt;&lt;font face=&quot;Courier New&quot;&gt;EAX =&amp;nbsp;&lt;/font&gt;&lt;/b&gt;&lt;b style=&quot;border-color: var(--border-color);&quot;&gt;&lt;font style=&quot;border-color: var(--border-color);&quot; face=&quot;Courier New&quot;&gt;0x700000F0&lt;/font&gt;&lt;/b&gt;&lt;/font&gt;" style="text;html=1;strokeColor=none;fillColor=none;align=center;verticalAlign=middle;whiteSpace=wrap;rounded=0;" parent="1" vertex="1">
          <mxGeometry x="40" y="525" width="180" height="30" as="geometry" />
        </mxCell>
        <mxCell id="weiLWwNsHWYrnJDk8qsG-15" value="&lt;b&gt;&lt;font face=&quot;Courier New&quot;&gt;&lt;font color=&quot;#cc0000&quot;&gt;EBX&lt;/font&gt; =&amp;nbsp;&lt;/font&gt;&lt;/b&gt;&lt;b style=&quot;border-color: var(--border-color);&quot;&gt;&lt;font color=&quot;#ff0000&quot; style=&quot;border-color: var(--border-color);&quot; face=&quot;Courier New&quot;&gt;0x11223344&lt;/font&gt;&lt;/b&gt;" style="text;html=1;strokeColor=none;fillColor=none;align=center;verticalAlign=middle;whiteSpace=wrap;rounded=0;" parent="1" vertex="1">
          <mxGeometry x="40" y="495" width="180" height="30" as="geometry" />
        </mxCell>
        <mxCell id="weiLWwNsHWYrnJDk8qsG-16" value="" style="endArrow=classic;html=1;rounded=0;entryX=0;entryY=0.5;entryDx=0;entryDy=0;" parent="1" target="weiLWwNsHWYrnJDk8qsG-13" edge="1">
          <mxGeometry width="50" height="50" relative="1" as="geometry">
            <mxPoint x="190" y="540" as="sourcePoint" />
            <mxPoint x="10" y="500" as="targetPoint" />
          </mxGeometry>
        </mxCell>
        <mxCell id="weiLWwNsHWYrnJDk8qsG-25" value="" style="rounded=0;whiteSpace=wrap;html=1;fillColor=#f5f5f5;fontColor=#333333;strokeColor=#666666;" parent="1" vertex="1">
          <mxGeometry x="320" y="680" width="90" height="20" as="geometry" />
        </mxCell>
        <mxCell id="weiLWwNsHWYrnJDk8qsG-26" value="&lt;b style=&quot;border-color: var(--border-color);&quot;&gt;&lt;font color=&quot;#808080&quot; style=&quot;border-color: var(--border-color);&quot; face=&quot;Courier New&quot;&gt;0xdeadbeef&lt;/font&gt;&lt;/b&gt;" style="rounded=0;whiteSpace=wrap;html=1;fillColor=#dae8fc;strokeColor=#6c8ebf;" parent="1" vertex="1">
          <mxGeometry x="320" y="660" width="90" height="20" as="geometry" />
        </mxCell>
        <mxCell id="weiLWwNsHWYrnJDk8qsG-27" value="" style="rounded=0;whiteSpace=wrap;html=1;fillColor=#f5f5f5;fontColor=#333333;strokeColor=#666666;" parent="1" vertex="1">
          <mxGeometry x="320" y="640" width="90" height="20" as="geometry" />
        </mxCell>
        <mxCell id="weiLWwNsHWYrnJDk8qsG-28" value="" style="rounded=0;whiteSpace=wrap;html=1;fillColor=#f5f5f5;fontColor=#333333;strokeColor=#666666;" parent="1" vertex="1">
          <mxGeometry x="320" y="620" width="90" height="20" as="geometry" />
        </mxCell>
        <mxCell id="weiLWwNsHWYrnJDk8qsG-29" value="&lt;b&gt;&lt;font color=&quot;#808080&quot; face=&quot;Courier New&quot;&gt;0x700000F0&lt;/font&gt;&lt;/b&gt;" style="text;html=1;strokeColor=none;fillColor=none;align=center;verticalAlign=middle;whiteSpace=wrap;rounded=0;" parent="1" vertex="1">
          <mxGeometry x="220" y="655" width="90" height="30" as="geometry" />
        </mxCell>
        <mxCell id="weiLWwNsHWYrnJDk8qsG-30" value="&lt;b style=&quot;color: rgb(128, 128, 128);&quot;&gt;&lt;font face=&quot;Courier New&quot;&gt;EAX =&amp;nbsp;&lt;/font&gt;&lt;/b&gt;&lt;b style=&quot;border-color: var(--border-color);&quot;&gt;&lt;font style=&quot;border-color: var(--border-color);&quot; face=&quot;Courier New&quot;&gt;0x700000F0&lt;/font&gt;&lt;/b&gt;" style="text;html=1;strokeColor=none;fillColor=none;align=center;verticalAlign=middle;whiteSpace=wrap;rounded=0;" parent="1" vertex="1">
          <mxGeometry x="40" y="655" width="180" height="30" as="geometry" />
        </mxCell>
        <mxCell id="weiLWwNsHWYrnJDk8qsG-31" value="&lt;b&gt;&lt;font face=&quot;Courier New&quot;&gt;&lt;font color=&quot;#cc0000&quot;&gt;EBX&lt;/font&gt; =&amp;nbsp;&lt;/font&gt;&lt;/b&gt;&lt;b style=&quot;border-color: var(--border-color);&quot;&gt;&lt;font color=&quot;#ff0000&quot; style=&quot;border-color: var(--border-color);&quot; face=&quot;Courier New&quot;&gt;0x700000F0&lt;/font&gt;&lt;/b&gt;" style="text;html=1;strokeColor=none;fillColor=none;align=center;verticalAlign=middle;whiteSpace=wrap;rounded=0;" parent="1" vertex="1">
          <mxGeometry x="40" y="625" width="180" height="30" as="geometry" />
        </mxCell>
        <mxCell id="weiLWwNsHWYrnJDk8qsG-32" value="" style="endArrow=classic;html=1;rounded=0;entryX=0;entryY=0.5;entryDx=0;entryDy=0;" parent="1" target="weiLWwNsHWYrnJDk8qsG-29" edge="1">
          <mxGeometry width="50" height="50" relative="1" as="geometry">
            <mxPoint x="190" y="670" as="sourcePoint" />
            <mxPoint x="10" y="630" as="targetPoint" />
          </mxGeometry>
        </mxCell>
        <mxCell id="weiLWwNsHWYrnJDk8qsG-33" value="" style="rounded=0;whiteSpace=wrap;html=1;fillColor=#f5f5f5;fontColor=#333333;strokeColor=#666666;" parent="1" vertex="1">
          <mxGeometry x="320" y="800" width="90" height="20" as="geometry" />
        </mxCell>
        <mxCell id="weiLWwNsHWYrnJDk8qsG-34" value="&lt;b style=&quot;border-color: var(--border-color);&quot;&gt;&lt;font style=&quot;border-color: var(--border-color);&quot; face=&quot;Courier New&quot;&gt;0xdeadbeef&lt;/font&gt;&lt;/b&gt;" style="rounded=0;whiteSpace=wrap;html=1;fillColor=#dae8fc;strokeColor=#6c8ebf;" parent="1" vertex="1">
          <mxGeometry x="320" y="780" width="90" height="20" as="geometry" />
        </mxCell>
        <mxCell id="weiLWwNsHWYrnJDk8qsG-35" value="" style="rounded=0;whiteSpace=wrap;html=1;fillColor=#f5f5f5;fontColor=#333333;strokeColor=#666666;" parent="1" vertex="1">
          <mxGeometry x="320" y="760" width="90" height="20" as="geometry" />
        </mxCell>
        <mxCell id="weiLWwNsHWYrnJDk8qsG-36" value="" style="rounded=0;whiteSpace=wrap;html=1;fillColor=#f5f5f5;fontColor=#333333;strokeColor=#666666;" parent="1" vertex="1">
          <mxGeometry x="320" y="740" width="90" height="20" as="geometry" />
        </mxCell>
        <mxCell id="weiLWwNsHWYrnJDk8qsG-37" value="&lt;b&gt;&lt;font color=&quot;#808080&quot; face=&quot;Courier New&quot;&gt;0x700000F0&lt;/font&gt;&lt;/b&gt;" style="text;html=1;strokeColor=none;fillColor=none;align=center;verticalAlign=middle;whiteSpace=wrap;rounded=0;" parent="1" vertex="1">
          <mxGeometry x="220" y="775" width="90" height="30" as="geometry" />
        </mxCell>
        <mxCell id="weiLWwNsHWYrnJDk8qsG-38" value="&lt;b style=&quot;color: rgb(128, 128, 128);&quot;&gt;&lt;font face=&quot;Courier New&quot;&gt;EAX =&amp;nbsp;&lt;/font&gt;&lt;/b&gt;&lt;b style=&quot;border-color: var(--border-color);&quot;&gt;&lt;font color=&quot;#808080&quot; style=&quot;border-color: var(--border-color);&quot; face=&quot;Courier New&quot;&gt;0x700000F0&lt;/font&gt;&lt;/b&gt;" style="text;html=1;strokeColor=none;fillColor=none;align=center;verticalAlign=middle;whiteSpace=wrap;rounded=0;" parent="1" vertex="1">
          <mxGeometry x="40" y="775" width="180" height="30" as="geometry" />
        </mxCell>
        <mxCell id="weiLWwNsHWYrnJDk8qsG-39" value="&lt;b&gt;&lt;font face=&quot;Courier New&quot;&gt;&lt;font color=&quot;#cc0000&quot;&gt;EBX&lt;/font&gt; =&amp;nbsp;&lt;/font&gt;&lt;/b&gt;&lt;b style=&quot;border-color: var(--border-color);&quot;&gt;&lt;font color=&quot;#ff0000&quot; style=&quot;border-color: var(--border-color);&quot; face=&quot;Courier New&quot;&gt;0xdeadbeef&lt;/font&gt;&lt;/b&gt;" style="text;html=1;strokeColor=none;fillColor=none;align=center;verticalAlign=middle;whiteSpace=wrap;rounded=0;" parent="1" vertex="1">
          <mxGeometry x="40" y="745" width="180" height="30" as="geometry" />
        </mxCell>
        <mxCell id="weiLWwNsHWYrnJDk8qsG-40" value="" style="endArrow=classic;html=1;rounded=0;entryX=0;entryY=0.5;entryDx=0;entryDy=0;" parent="1" target="weiLWwNsHWYrnJDk8qsG-37" edge="1">
          <mxGeometry width="50" height="50" relative="1" as="geometry">
            <mxPoint x="190" y="790" as="sourcePoint" />
            <mxPoint x="10" y="750" as="targetPoint" />
          </mxGeometry>
        </mxCell>
        <mxCell id="weiLWwNsHWYrnJDk8qsG-41" value="" style="rounded=0;whiteSpace=wrap;html=1;fillColor=#f5f5f5;fontColor=#333333;strokeColor=#666666;" parent="1" vertex="1">
          <mxGeometry x="320" y="930" width="90" height="20" as="geometry" />
        </mxCell>
        <mxCell id="weiLWwNsHWYrnJDk8qsG-42" value="&lt;b style=&quot;border-color: var(--border-color);&quot;&gt;&lt;font color=&quot;#ff0000&quot; style=&quot;border-color: var(--border-color);&quot; face=&quot;Courier New&quot;&gt;0xcafebabe&lt;/font&gt;&lt;/b&gt;" style="rounded=0;whiteSpace=wrap;html=1;fillColor=#dae8fc;strokeColor=#6c8ebf;" parent="1" vertex="1">
          <mxGeometry x="320" y="910" width="90" height="20" as="geometry" />
        </mxCell>
        <mxCell id="weiLWwNsHWYrnJDk8qsG-43" value="" style="rounded=0;whiteSpace=wrap;html=1;fillColor=#f5f5f5;fontColor=#333333;strokeColor=#666666;" parent="1" vertex="1">
          <mxGeometry x="320" y="890" width="90" height="20" as="geometry" />
        </mxCell>
        <mxCell id="weiLWwNsHWYrnJDk8qsG-44" value="" style="rounded=0;whiteSpace=wrap;html=1;fillColor=#f5f5f5;fontColor=#333333;strokeColor=#666666;" parent="1" vertex="1">
          <mxGeometry x="320" y="870" width="90" height="20" as="geometry" />
        </mxCell>
        <mxCell id="weiLWwNsHWYrnJDk8qsG-45" value="&lt;b&gt;&lt;font color=&quot;#808080&quot; face=&quot;Courier New&quot;&gt;0x700000F0&lt;/font&gt;&lt;/b&gt;" style="text;html=1;strokeColor=none;fillColor=none;align=center;verticalAlign=middle;whiteSpace=wrap;rounded=0;" parent="1" vertex="1">
          <mxGeometry x="220" y="905" width="90" height="30" as="geometry" />
        </mxCell>
        <mxCell id="weiLWwNsHWYrnJDk8qsG-46" value="&lt;b style=&quot;color: rgb(128, 128, 128);&quot;&gt;&lt;font face=&quot;Courier New&quot;&gt;EAX =&amp;nbsp;&lt;/font&gt;&lt;/b&gt;&lt;b style=&quot;border-color: var(--border-color);&quot;&gt;&lt;font color=&quot;#808080&quot; style=&quot;border-color: var(--border-color);&quot; face=&quot;Courier New&quot;&gt;0x700000F0&lt;/font&gt;&lt;/b&gt;" style="text;html=1;strokeColor=none;fillColor=none;align=center;verticalAlign=middle;whiteSpace=wrap;rounded=0;" parent="1" vertex="1">
          <mxGeometry x="40" y="905" width="180" height="30" as="geometry" />
        </mxCell>
        <mxCell id="weiLWwNsHWYrnJDk8qsG-47" value="&lt;b&gt;&lt;font face=&quot;Courier New&quot;&gt;&lt;font color=&quot;#cc0000&quot;&gt;EBX&lt;/font&gt; =&amp;nbsp;&lt;/font&gt;&lt;/b&gt;&lt;b style=&quot;border-color: var(--border-color);&quot;&gt;&lt;font style=&quot;border-color: var(--border-color);&quot; face=&quot;Courier New&quot;&gt;0xcafebabe&lt;/font&gt;&lt;/b&gt;" style="text;html=1;strokeColor=none;fillColor=none;align=center;verticalAlign=middle;whiteSpace=wrap;rounded=0;" parent="1" vertex="1">
          <mxGeometry x="40" y="875" width="180" height="30" as="geometry" />
        </mxCell>
        <mxCell id="weiLWwNsHWYrnJDk8qsG-48" value="" style="endArrow=classic;html=1;rounded=0;entryX=0;entryY=0.5;entryDx=0;entryDy=0;" parent="1" target="weiLWwNsHWYrnJDk8qsG-45" edge="1">
          <mxGeometry width="50" height="50" relative="1" as="geometry">
            <mxPoint x="190" y="920" as="sourcePoint" />
            <mxPoint x="10" y="880" as="targetPoint" />
          </mxGeometry>
        </mxCell>
        <mxCell id="weiLWwNsHWYrnJDk8qsG-49" value="" style="labelPosition=right;align=left;strokeWidth=2;shape=mxgraph.mockup.markup.curlyBrace;html=1;shadow=0;dashed=0;strokeColor=#999999;direction=north;" parent="1" vertex="1">
          <mxGeometry x="40" y="490" width="20" height="80" as="geometry" />
        </mxCell>
        <mxCell id="weiLWwNsHWYrnJDk8qsG-50" value="" style="labelPosition=right;align=left;strokeWidth=2;shape=mxgraph.mockup.markup.curlyBrace;html=1;shadow=0;dashed=0;strokeColor=#999999;direction=north;" parent="1" vertex="1">
          <mxGeometry x="40" y="615" width="20" height="80" as="geometry" />
        </mxCell>
        <mxCell id="weiLWwNsHWYrnJDk8qsG-51" value="" style="labelPosition=right;align=left;strokeWidth=2;shape=mxgraph.mockup.markup.curlyBrace;html=1;shadow=0;dashed=0;strokeColor=#999999;direction=north;" parent="1" vertex="1">
          <mxGeometry x="40" y="740" width="20" height="80" as="geometry" />
        </mxCell>
        <mxCell id="weiLWwNsHWYrnJDk8qsG-52" value="" style="labelPosition=right;align=left;strokeWidth=2;shape=mxgraph.mockup.markup.curlyBrace;html=1;shadow=0;dashed=0;strokeColor=#999999;direction=north;" parent="1" vertex="1">
          <mxGeometry x="40" y="870" width="20" height="80" as="geometry" />
        </mxCell>
        <mxCell id="vEsgO_KvfQLmG8-GEmom-1" value="" style="endArrow=classic;html=1;rounded=0;fillColor=#ffe6cc;strokeColor=#d79b00;strokeWidth=2;endSize=2;exitX=0.69;exitY=-0.001;exitDx=0;exitDy=0;exitPerimeter=0;entryX=0.539;entryY=0.009;entryDx=0;entryDy=0;entryPerimeter=0;" edge="1" parent="1" source="weiLWwNsHWYrnJDk8qsG-4" target="weiLWwNsHWYrnJDk8qsG-15">
          <mxGeometry width="50" height="50" relative="1" as="geometry">
            <mxPoint x="-30" y="485" as="sourcePoint" />
            <mxPoint x="120" y="480" as="targetPoint" />
            <Array as="points">
              <mxPoint x="-10" y="470" />
              <mxPoint x="137" y="470" />
            </Array>
          </mxGeometry>
        </mxCell>
        <mxCell id="vEsgO_KvfQLmG8-GEmom-3" value="" style="endArrow=classic;html=1;rounded=0;strokeWidth=2;fillColor=#ffe6cc;strokeColor=#d79b00;endSize=2;" edge="1" parent="1">
          <mxGeometry width="50" height="50" relative="1" as="geometry">
            <mxPoint x="150" y="664" as="sourcePoint" />
            <mxPoint x="150" y="645" as="targetPoint" />
          </mxGeometry>
        </mxCell>
        <mxCell id="vEsgO_KvfQLmG8-GEmom-4" value="" style="endArrow=classic;html=1;rounded=0;strokeWidth=2;fillColor=#ffe6cc;strokeColor=#d79b00;endSize=2;entryX=0;entryY=0.5;entryDx=0;entryDy=0;" edge="1" parent="1">
          <mxGeometry width="50" height="50" relative="1" as="geometry">
            <mxPoint x="190" y="890" as="sourcePoint" />
            <mxPoint x="320" y="920.6899999999998" as="targetPoint" />
          </mxGeometry>
        </mxCell>
        <mxCell id="vEsgO_KvfQLmG8-GEmom-5" value="" style="endArrow=classic;html=1;rounded=0;strokeWidth=2;fillColor=#ffe6cc;strokeColor=#d79b00;endSize=2;exitX=0;exitY=0.5;exitDx=0;exitDy=0;" edge="1" parent="1">
          <mxGeometry width="50" height="50" relative="1" as="geometry">
            <mxPoint x="320" y="789.9999999999998" as="sourcePoint" />
            <mxPoint x="193" y="760" as="targetPoint" />
          </mxGeometry>
        </mxCell>
      </root>
    </mxGraphModel>
  </diagram>
</mxfile>
